<?xml version="1.0" encoding="UTF-8"?>
<svg version="1.1" xmlns="http://www.w3.org/2000/svg" width="128" height="128">
<path d="M0 0 C9.07625506 7.57318098 15.89334091 17.340722 19.9375 28.4375 C20.25460938 29.21480469 20.57171875 29.99210937 20.8984375 30.79296875 C26.11170135 45.83490895 24.01507126 64.12563267 17.6171875 78.37890625 C9.05022578 95.20853871 -4.47184071 106.3389053 -22.21484375 112.5390625 C-35.17557683 116.0366626 -49.36325039 115.74517498 -62.0625 111.4375 C-62.90941406 111.17066406 -63.75632813 110.90382813 -64.62890625 110.62890625 C-80.46877498 105.05148768 -92.53357588 92.06950412 -100.0625 77.4375 C-106.87026298 60.69355116 -107.63929729 41.78251899 -100.62109375 24.98828125 C-93.30353555 9.28354498 -82.06053462 -2.90426311 -65.80859375 -9.56640625 C-64.90238281 -9.89511719 -63.99617188 -10.22382813 -63.0625 -10.5625 C-62.18722656 -10.88089844 -61.31195313 -11.19929687 -60.41015625 -11.52734375 C-39.37688232 -17.92877495 -17.38175323 -12.82039252 0 0 Z " fill="#FDFEFE" transform="translate(105.0625,13.5625)"/>
<path d="M0 0 C0.7326709 0.00451172 1.4653418 0.00902344 2.22021484 0.01367188 C2.98382324 0.01560547 3.74743164 0.01753906 4.53417969 0.01953125 C17.37032481 0.10858525 30.20631064 0.66164636 43.03271484 1.13867188 C43.52771484 2.62367187 43.52771484 2.62367187 44.03271484 4.13867188 C29.51271484 4.46867187 14.99271484 4.79867188 0.03271484 5.13867188 C-0.91603516 10.95492187 -1.86478516 16.77117188 -2.84228516 22.76367188 C-3.13731934 24.56787598 -3.43235352 26.37208008 -3.73632812 28.23095703 C-4.87065809 35.19274726 -5.98968647 42.15276595 -6.96728516 49.13867188 C-8.20074689 57.95297144 -9.65578319 66.73068363 -11.09228516 75.51367188 C-11.37235761 77.23240159 -11.65230629 78.95115147 -11.93212891 80.66992188 C-12.60909175 84.82640516 -13.28771443 88.98261421 -13.96728516 93.13867188 C-16.70701072 91.7688091 -17.05948669 90.22505845 -18.35791016 87.46679688 C-18.81770264 86.49750244 -19.27749512 85.52820801 -19.7512207 84.52954102 C-20.47692261 82.97481079 -20.47692261 82.97481079 -21.21728516 81.38867188 C-21.70946533 80.34638428 -22.20164551 79.30409668 -22.70874023 78.23022461 C-24.13563601 75.20309827 -25.55354691 72.17196212 -26.96728516 69.13867188 C-27.33063965 68.35959473 -27.69399414 67.58051758 -28.06835938 66.77783203 C-29.71598398 63.23808575 -31.35059844 59.69265407 -32.96728516 56.13867188 C-40.06568839 58.34364543 -46.67824651 61.17633648 -53.40478516 64.32617188 C-55.36023085 65.23972967 -57.3171879 66.15006176 -59.27587891 67.05664062 C-60.12980225 67.4564917 -60.98372559 67.85634277 -61.86352539 68.26831055 C-63.96728516 69.13867188 -63.96728516 69.13867188 -65.96728516 69.13867188 C-65.96728516 68.14867188 -65.96728516 67.15867187 -65.96728516 66.13867188 C-60.15673828 62.81835938 -54.34619141 59.49804688 -48.53564453 56.17773438 C-47.9065065 55.81822693 -47.27736847 55.45871948 -46.62916565 55.08831787 C-43.74187215 53.43843587 -40.85457865 51.78855387 -37.96728516 50.13867188 C-37.33678253 49.76512573 -36.70627991 49.39157959 -36.05667114 49.00671387 C-31.17874704 46.13867188 -31.17874704 46.13867188 -28.96728516 46.13867188 C-25.33728516 54.05867188 -21.70728516 61.97867188 -17.96728516 70.13867188 C-17.51998047 67.50382812 -17.07267578 64.86898437 -16.61181641 62.15429688 C-13.805839 45.6433525 -10.99820175 29.13236775 -8.09228516 12.63867188 C-7.88966064 11.47239258 -7.68703613 10.30611328 -7.47827148 9.10449219 C-7.29159912 8.05358398 -7.10492676 7.00267578 -6.91259766 5.91992188 C-6.75291504 5.01306641 -6.59323242 4.10621094 -6.42871094 3.171875 C-5.548779 -0.7054124 -3.61009254 0.01064662 0 0 Z " fill="#29D6E6" transform="translate(70.96728515625,21.861328125)"/>
</svg>
