<?xml version="1.0" standalone="no"?>
<!DOCTYPE svg PUBLIC "-//W3C//DTD SVG 20010904//EN"
 "http://www.w3.org/TR/2001/REC-SVG-20010904/DTD/svg10.dtd">
<svg version="1.0" xmlns="http://www.w3.org/2000/svg"
 width="960.000000pt" height="960.000000pt" viewBox="0 0 960.000000 960.000000"
 preserveAspectRatio="xMidYMid meet">

<g transform="translate(0.000000,960.000000) scale(0.100000,-0.100000)"
fill="#000000" stroke="none">
<path d="M0 7325 l0 -2275 2275 0 2275 0 0 2275 0 2275 -2275 0 -2275 0 0
-2275z"/>
<path d="M5050 7325 l0 -2275 2275 0 2275 0 0 2275 0 2275 -2275 0 -2275 0 0
-2275z"/>
<path d="M0 2275 l0 -2275 2275 0 2275 0 0 2275 0 2275 -2275 0 -2275 0 0
-2275z"/>
<path d="M5050 2275 l0 -2275 2275 0 2275 0 0 2275 0 2275 -2275 0 -2275 0 0
-2275z"/>
</g>
</svg>
